<svg id="Layer_1" data-name="Layer 1" xmlns="http://www.w3.org/2000/svg" viewBox="0 0 484.57 168.73">
	<defs>
		<style>.cls-1{fill:#ffffff;}.cls-2{fill:#ff9012;}</style>
	</defs>
	<title>apa002_identity</title>
	<path class="cls-1" d="M57.23,57.23H84.11V46.63H54.42a7.79,7.79,0,0,0-7.79,7.79v60.38a7.79,7.79,0,0,0,7.79,7.79H114.8a7.79,7.79,0,0,0,7.79-7.79V85.1H112V112H57.23Z"/>
	<path class="cls-2" d="M121.51,74.58h10.6V44.88a7.77,7.77,0,0,0-7.77-7.77H94.63V47.7h26.88Z"/>
	<path class="cls-1" d="M444.46,77h6.27v1.4h-2.38v6.43h-1.51V78.38h-2.38Zm16,0v7.84H459V79l-2,4.72h-1.44l-2-4.71v5.82h-1.5V77h2.09l2.08,5,2.08-5Z"/>
	<path class="cls-1" d="M238.11,93c0-9.46-6.68-16-17.72-16H201.48v46.29h10.18V109.37h7.74c10.38,0,18.71-5.55,18.71-16.27Zm-10.32.33c0,4-3,7-8.07,7h-8.07V86.16h7.87c5.09,0,8.27,2.45,8.27,7Z"/>
	<path class="cls-1" d="M326.87,92.38v-.13c0-9.52-6.55-15.27-17.46-15.27H288.25v46.29h10.18V108.44h8l9.92,14.81h11.9L317,106.72C322.84,104.54,326.87,99.85,326.87,92.38Zm-10.32.53c0,3.9-2.84,6.55-7.8,6.55H298.44V86.16h10.12c5,0,8,2.25,8,6.61Z"/>
	<path class="cls-1" d="M260.93,76.64h-4.25A3.89,3.89,0,0,0,253.11,79l-18.83,44.25h10.38l4-9.86h20l4,9.86h10.65L264.51,79A3.89,3.89,0,0,0,260.93,76.64Zm-8.68,28,6.43-15.76,6.43,15.76Z"/>
	<rect class="cls-1" x="427.6" y="76.97" width="10.18" height="46.29"/>
	<path class="cls-1" d="M397.35,111l-14-34.38H372.69l18.83,44.25a3.89,3.89,0,0,0,3.58,2.37h4.25a3.89,3.89,0,0,0,3.58-2.37l18.83-44.25H411.37Z"/>
	<path class="cls-1" d="M358.89,76.64h-4.25A3.89,3.89,0,0,0,351.07,79l-18.83,44.25h10.38l4-9.86h20l4,9.86H381.3L362.47,79A3.89,3.89,0,0,0,358.89,76.64Zm-8.68,28,6.43-15.76,6.43,15.76Z"/>
	<path class="cls-1" d="M176.71,79a3.89,3.89,0,0,0-3.58-2.37h-4.25A3.89,3.89,0,0,0,165.3,79l-18.83,44.25h10.38l6.42-15.76,3.44-8.44,4.16-10.19,7.62,18.7,6.4,15.69h10.65Z"/>
	<polygon class="cls-2" points="166.72 99.06 163.28 107.5 184.89 123.25 178.5 107.57 166.72 99.06"/>
</svg>